<svg xmlns="http://www.w3.org/2000/svg" xmlns:xlink="http://www.w3.org/1999/xlink" width="3780" zoomAndPan="magnify" viewBox="0 0 2835 2834.999876" height="3780" preserveAspectRatio="xMidYMid meet" version="1.0"><defs><g/><clipPath id="66059a6b8c"><path d="M 0 0.398438 L 2835 0.398438 L 2835 1302.878906 L 0 1302.878906 Z M 0 0.398438 " clip-rule="nonzero"/></clipPath><clipPath id="5c9feef81d"><path d="M 474 1.480469 L 2310 1.480469 L 2310 497.65625 L 474 497.65625 Z M 474 1.480469 " clip-rule="nonzero"/></clipPath><clipPath id="8343113c0c"><rect x="0" width="2835" y="0" height="572"/></clipPath><clipPath id="03a91fe3ea"><path d="M 545 1030 L 2260 1030 L 2260 1302.878906 L 545 1302.878906 Z M 545 1030 " clip-rule="nonzero"/></clipPath><clipPath id="9dd37bb8f2"><rect x="0" width="1715" y="0" height="273"/></clipPath><clipPath id="09d79cf0e9"><rect x="0" width="2835" y="0" height="1303"/></clipPath><clipPath id="dd93325d6f"><rect x="0" width="2835" y="0" height="1303"/></clipPath></defs><g transform="matrix(1, 0, 0, 1, 0, 782)"><g clip-path="url(#dd93325d6f)"><g clip-path="url(#66059a6b8c)"><g transform="matrix(1, 0, 0, 1, 0, 0)"><g clip-path="url(#09d79cf0e9)"><path fill="#03989e" d="M 1388.402344 96.597656 L 1388.0625 371.011719 L 1000.238281 4.507812 Z M 1388.402344 96.597656 " fill-opacity="1" fill-rule="nonzero"/><path fill="#ffcc22" d="M 1390.003906 96.597656 L 1390.34375 371.011719 L 1778.167969 4.507812 Z M 1390.003906 96.597656 " fill-opacity="1" fill-rule="nonzero"/><g clip-path="url(#5c9feef81d)"><path fill="#4e615e" d="M 474.046875 498.121094 L 531.347656 498.121094 L 637.429688 397.832031 L 637.429688 101.507812 L 774.433594 101.507812 L 774.433594 268.34375 L 999.484375 55.648438 L 1467.6875 498.121094 L 1524.996094 498.121094 L 1420.613281 399.515625 L 1784.464844 55.648438 L 2252.671875 498.121094 L 2309.964844 498.121094 L 1784.464844 1.527344 L 1391.996094 372.425781 L 999.484375 1.527344 L 813.773438 177.046875 L 813.773438 62.179688 L 598.097656 62.179688 L 598.097656 380.890625 Z M 940.996094 331.414062 L 982.832031 331.414062 C 987.03125 331.414062 990.429688 328.015625 990.429688 323.816406 L 990.429688 281.996094 C 990.429688 277.796875 987.03125 274.398438 982.832031 274.398438 L 940.996094 274.398438 C 936.804688 274.398438 933.40625 277.796875 933.40625 281.996094 L 933.40625 323.816406 C 933.40625 328.015625 936.804688 331.414062 940.996094 331.414062 Z M 1017.648438 331.414062 L 1059.480469 331.414062 C 1063.671875 331.414062 1067.078125 328.015625 1067.078125 323.816406 L 1067.078125 281.996094 C 1067.078125 277.796875 1063.671875 274.398438 1059.480469 274.398438 L 1017.648438 274.398438 C 1013.457031 274.398438 1010.050781 277.796875 1010.050781 281.996094 L 1010.050781 323.816406 C 1010.050781 328.015625 1013.457031 331.414062 1017.648438 331.414062 Z M 940.996094 258.289062 L 982.832031 258.289062 C 987.03125 258.289062 990.429688 254.890625 990.429688 250.691406 L 990.429688 208.875 C 990.429688 204.675781 987.03125 201.277344 982.832031 201.277344 L 940.996094 201.277344 C 936.804688 201.277344 933.40625 204.675781 933.40625 208.875 L 933.40625 250.691406 C 933.40625 254.890625 936.804688 258.289062 940.996094 258.289062 Z M 1010.050781 250.691406 L 1010.050781 208.875 C 1010.050781 204.675781 1013.457031 201.277344 1017.648438 201.277344 L 1059.480469 201.277344 C 1063.671875 201.277344 1067.078125 204.675781 1067.078125 208.875 L 1067.078125 250.691406 C 1067.078125 254.890625 1063.671875 258.289062 1059.480469 258.289062 L 1017.648438 258.289062 C 1013.457031 258.289062 1010.050781 254.890625 1010.050781 250.691406 Z M 1745.953125 331.414062 L 1787.796875 331.414062 C 1791.988281 331.414062 1795.394531 328.015625 1795.394531 323.816406 L 1795.394531 281.996094 C 1795.394531 277.796875 1791.988281 274.398438 1787.796875 274.398438 L 1745.953125 274.398438 C 1741.753906 274.398438 1738.355469 277.796875 1738.355469 281.996094 L 1738.355469 323.816406 C 1738.355469 328.015625 1741.753906 331.414062 1745.953125 331.414062 Z M 1822.613281 331.414062 L 1864.4375 331.414062 C 1868.628906 331.414062 1872.035156 328.015625 1872.035156 323.816406 L 1872.035156 281.996094 C 1872.035156 277.796875 1868.628906 274.398438 1864.4375 274.398438 L 1822.613281 274.398438 C 1818.421875 274.398438 1815.015625 277.796875 1815.015625 281.996094 L 1815.015625 323.816406 C 1815.015625 328.015625 1818.421875 331.414062 1822.613281 331.414062 Z M 1745.953125 258.289062 L 1787.796875 258.289062 C 1791.988281 258.289062 1795.394531 254.890625 1795.394531 250.691406 L 1795.394531 208.875 C 1795.394531 204.675781 1791.988281 201.277344 1787.796875 201.277344 L 1745.953125 201.277344 C 1741.753906 201.277344 1738.355469 204.675781 1738.355469 208.875 L 1738.355469 250.691406 C 1738.355469 254.890625 1741.753906 258.289062 1745.953125 258.289062 Z M 1815.015625 250.691406 L 1815.015625 208.875 C 1815.015625 204.675781 1818.421875 201.277344 1822.613281 201.277344 L 1864.4375 201.277344 C 1868.628906 201.277344 1872.035156 204.675781 1872.035156 208.875 L 1872.035156 250.691406 C 1872.035156 254.890625 1868.628906 258.289062 1864.4375 258.289062 L 1822.613281 258.289062 C 1818.421875 258.289062 1815.015625 254.890625 1815.015625 250.691406 " fill-opacity="1" fill-rule="nonzero"/></g><g transform="matrix(1, 0, 0, 1, 0, 506)"><g clip-path="url(#8343113c0c)"><g fill="#4e615e" fill-opacity="1"><g transform="translate(-16.02254, 404.002928)"><g><path d="M 31.15625 -4.265625 C 38.550781 -4.265625 44.878906 -6.894531 50.140625 -12.15625 C 55.410156 -17.425781 58.1875 -23.757812 58.46875 -31.15625 L 58.46875 -267.578125 C 58.1875 -274.972656 55.410156 -281.300781 50.140625 -286.5625 C 44.878906 -291.832031 38.550781 -294.46875 31.15625 -294.46875 L 25.609375 -294.46875 L 25.609375 -298.734375 L 119.0625 -298.734375 L 119.0625 -294.46875 L 113.515625 -294.46875 C 103.273438 -294.46875 95.453125 -290.054688 90.046875 -281.234375 C 87.484375 -276.972656 86.203125 -272.421875 86.203125 -267.578125 L 86.203125 -13.234375 L 147.234375 -13.234375 C 168.285156 -13.234375 184.359375 -17.925781 195.453125 -27.3125 C 206.554688 -36.695312 215.804688 -50.640625 223.203125 -69.140625 L 227.46875 -69.140625 L 202.71875 0 L 25.609375 0 L 25.609375 -4.265625 Z M 31.15625 -4.265625 "/></g></g></g><g fill="#4e615e" fill-opacity="1"><g transform="translate(259.234082, 404.002928)"><g><path d="M 305.5625 -4.265625 L 308.96875 -4.265625 L 308.96875 0 L 212.953125 0 L 212.953125 -4.265625 L 216.796875 -4.265625 C 222.765625 -4.265625 227.242188 -6.1875 230.234375 -10.03125 C 233.222656 -13.875 234.71875 -17.5 234.71875 -20.90625 C 234.71875 -24.320312 234.148438 -27.738281 233.015625 -31.15625 L 205.703125 -103.703125 L 90.46875 -103.703125 L 61.875 -30.734375 C 60.738281 -27.316406 60.171875 -23.972656 60.171875 -20.703125 C 60.171875 -17.429688 61.660156 -13.875 64.640625 -10.03125 C 67.628906 -6.1875 72.113281 -4.265625 78.09375 -4.265625 L 81.9375 -4.265625 L 81.9375 0 L -3.84375 0 L -3.84375 -4.265625 L 0 -4.265625 C 7.113281 -4.265625 14.082031 -6.539062 20.90625 -11.09375 C 27.738281 -15.644531 33.285156 -22.332031 37.546875 -31.15625 L 134 -260.75 C 144.53125 -283.800781 149.796875 -298.453125 149.796875 -304.703125 L 153.625 -304.703125 L 268 -31.15625 C 271.988281 -22.332031 277.394531 -15.644531 284.21875 -11.09375 C 291.050781 -6.539062 298.164062 -4.265625 305.5625 -4.265625 Z M 95.59375 -116.5 L 200.578125 -116.5 L 149.359375 -253.5 Z M 95.59375 -116.5 "/></g></g></g><g fill="#4e615e" fill-opacity="1"><g transform="translate(598.502814, 404.002928)"><g/></g></g><g fill="#4e615e" fill-opacity="1"><g transform="translate(740.61434, 404.002928)"><g><path d="M 31.15625 -4.265625 C 38.550781 -4.265625 44.878906 -6.894531 50.140625 -12.15625 C 55.410156 -17.425781 58.1875 -23.757812 58.46875 -31.15625 L 58.46875 -267.578125 C 58.1875 -274.972656 55.410156 -281.300781 50.140625 -286.5625 C 44.878906 -291.832031 38.550781 -294.46875 31.15625 -294.46875 L 25.609375 -294.46875 L 25.609375 -298.734375 L 119.0625 -298.734375 L 119.0625 -294.46875 L 113.515625 -294.46875 C 103.273438 -294.46875 95.453125 -290.054688 90.046875 -281.234375 C 87.484375 -276.972656 86.203125 -272.421875 86.203125 -267.578125 L 86.203125 -13.234375 L 147.234375 -13.234375 C 168.285156 -13.234375 184.359375 -17.925781 195.453125 -27.3125 C 206.554688 -36.695312 215.804688 -50.640625 223.203125 -69.140625 L 227.46875 -69.140625 L 202.71875 0 L 25.609375 0 L 25.609375 -4.265625 Z M 31.15625 -4.265625 "/></g></g></g><g fill="#4e615e" fill-opacity="1"><g transform="translate(1015.870962, 404.002928)"><g><path d="M 305.5625 -4.265625 L 308.96875 -4.265625 L 308.96875 0 L 212.953125 0 L 212.953125 -4.265625 L 216.796875 -4.265625 C 222.765625 -4.265625 227.242188 -6.1875 230.234375 -10.03125 C 233.222656 -13.875 234.71875 -17.5 234.71875 -20.90625 C 234.71875 -24.320312 234.148438 -27.738281 233.015625 -31.15625 L 205.703125 -103.703125 L 90.46875 -103.703125 L 61.875 -30.734375 C 60.738281 -27.316406 60.171875 -23.972656 60.171875 -20.703125 C 60.171875 -17.429688 61.660156 -13.875 64.640625 -10.03125 C 67.628906 -6.1875 72.113281 -4.265625 78.09375 -4.265625 L 81.9375 -4.265625 L 81.9375 0 L -3.84375 0 L -3.84375 -4.265625 L 0 -4.265625 C 7.113281 -4.265625 14.082031 -6.539062 20.90625 -11.09375 C 27.738281 -15.644531 33.285156 -22.332031 37.546875 -31.15625 L 134 -260.75 C 144.53125 -283.800781 149.796875 -298.453125 149.796875 -304.703125 L 153.625 -304.703125 L 268 -31.15625 C 271.988281 -22.332031 277.394531 -15.644531 284.21875 -11.09375 C 291.050781 -6.539062 298.164062 -4.265625 305.5625 -4.265625 Z M 95.59375 -116.5 L 200.578125 -116.5 L 149.359375 -253.5 Z M 95.59375 -116.5 "/></g></g></g><g fill="#4e615e" fill-opacity="1"><g transform="translate(1355.139694, 404.002928)"><g><path d="M 178.8125 5.96875 C 133.289062 5.6875 96.375 -8.675781 68.0625 -37.125 C 39.757812 -65.582031 25.609375 -103 25.609375 -149.375 C 25.609375 -195.75 39.757812 -233.226562 68.0625 -261.8125 C 96.375 -290.40625 133.289062 -304.703125 178.8125 -304.703125 C 218.070312 -304.703125 252.640625 -295.03125 282.515625 -275.6875 L 291.046875 -215.515625 L 287.21875 -215.515625 C 280.957031 -239.984375 268.363281 -258.832031 249.4375 -272.0625 C 230.519531 -285.289062 206.976562 -291.90625 178.8125 -291.90625 C 142.675781 -291.90625 113.441406 -278.816406 91.109375 -252.640625 C 68.773438 -226.472656 57.609375 -192.050781 57.609375 -149.375 C 57.609375 -106.695312 68.773438 -72.335938 91.109375 -46.296875 C 113.441406 -20.265625 142.675781 -7.109375 178.8125 -6.828125 C 197.300781 -6.828125 214.867188 -10.097656 231.515625 -16.640625 C 248.160156 -23.179688 262.742188 -32.285156 275.265625 -43.953125 L 275.265625 -119.5 C 275.265625 -125.757812 273.34375 -130.523438 269.5 -133.796875 C 265.65625 -137.066406 260.320312 -138.703125 253.5 -138.703125 L 246.671875 -138.703125 L 246.671875 -142.96875 L 330.3125 -142.96875 L 330.3125 -138.703125 L 323.921875 -138.703125 C 316.804688 -138.703125 311.398438 -137.066406 307.703125 -133.796875 C 304.003906 -130.523438 302.296875 -125.757812 302.578125 -119.5 L 302.578125 -49.078125 C 295.179688 -39.398438 286.359375 -30.71875 276.109375 -23.03125 C 265.867188 -15.351562 252.140625 -8.597656 234.921875 -2.765625 C 217.710938 3.054688 199.007812 5.96875 178.8125 5.96875 Z M 178.8125 5.96875 "/></g></g></g><g fill="#4e615e" fill-opacity="1"><g transform="translate(1731.108693, 404.002928)"><g><path d="M 313.671875 -294.46875 L 306.84375 -294.46875 C 300.863281 -294.46875 295.671875 -292.546875 291.265625 -288.703125 C 286.859375 -284.867188 284.507812 -280.101562 284.21875 -274.40625 L 284.21875 -105.40625 C 284.21875 -72.125 273.691406 -45.238281 252.640625 -24.75 C 231.585938 -4.269531 203.5625 5.96875 168.5625 5.96875 C 133.570312 5.96875 105.191406 -4.195312 83.421875 -24.53125 C 61.660156 -44.875 50.78125 -71.691406 50.78125 -104.984375 L 50.78125 -273.125 C 50.78125 -281.664062 47.082031 -287.925781 39.6875 -291.90625 C 36.269531 -293.613281 32.429688 -294.46875 28.171875 -294.46875 L 21.34375 -294.46875 L 21.34375 -298.734375 L 107.96875 -298.734375 L 107.96875 -294.46875 L 101.140625 -294.46875 C 94.878906 -294.46875 89.613281 -292.546875 85.34375 -288.703125 C 81.082031 -284.867188 78.8125 -279.960938 78.53125 -273.984375 L 78.53125 -110.953125 C 78.53125 -79.941406 86.847656 -54.90625 103.484375 -35.84375 C 120.128906 -16.78125 142.394531 -7.25 170.28125 -7.25 C 198.164062 -7.25 220.785156 -16.28125 238.140625 -34.34375 C 255.492188 -52.414062 264.171875 -76.101562 264.171875 -105.40625 L 264.171875 -273.984375 C 263.878906 -279.960938 261.597656 -284.867188 257.328125 -288.703125 C 253.066406 -292.546875 247.804688 -294.46875 241.546875 -294.46875 L 234.71875 -294.46875 L 234.71875 -298.734375 L 313.671875 -298.734375 Z M 313.671875 -294.46875 "/></g></g></g><g fill="#4e615e" fill-opacity="1"><g transform="translate(2101.529991, 404.002928)"><g><path d="M 332.03125 -294.46875 C 324.914062 -294.46875 318.796875 -291.976562 313.671875 -287 C 308.546875 -282.019531 305.84375 -275.972656 305.5625 -268.859375 L 305.5625 -48.65625 C 305.5625 -32.15625 306.554688 -16.503906 308.546875 -1.703125 L 309.40625 5.96875 L 305.5625 5.96875 L 72.984375 -242.40625 L 72.984375 -29.875 C 73.265625 -19.914062 77.671875 -12.519531 86.203125 -7.6875 C 90.191406 -5.40625 94.460938 -4.265625 99.015625 -4.265625 L 107.125 -4.265625 L 107.125 0 L 19.203125 0 L 19.203125 -4.265625 L 27.3125 -4.265625 C 34.425781 -4.265625 40.539062 -6.753906 45.65625 -11.734375 C 50.78125 -16.710938 53.34375 -22.898438 53.34375 -30.296875 L 53.34375 -251.796875 C 53.34375 -269.148438 52.347656 -284.65625 50.359375 -298.3125 L 49.5 -305.140625 L 53.765625 -305.140625 L 286.359375 -56.765625 L 286.359375 -268.4375 C 286.078125 -275.832031 283.375 -282.019531 278.25 -287 C 273.125 -291.976562 267.007812 -294.46875 259.90625 -294.46875 L 251.796875 -294.46875 L 251.796875 -298.734375 L 339.703125 -298.734375 L 339.703125 -294.46875 Z M 332.03125 -294.46875 "/></g></g></g><g fill="#4e615e" fill-opacity="1"><g transform="translate(2495.849196, 404.002928)"><g><path d="M 305.5625 -4.265625 L 308.96875 -4.265625 L 308.96875 0 L 212.953125 0 L 212.953125 -4.265625 L 216.796875 -4.265625 C 222.765625 -4.265625 227.242188 -6.1875 230.234375 -10.03125 C 233.222656 -13.875 234.71875 -17.5 234.71875 -20.90625 C 234.71875 -24.320312 234.148438 -27.738281 233.015625 -31.15625 L 205.703125 -103.703125 L 90.46875 -103.703125 L 61.875 -30.734375 C 60.738281 -27.316406 60.171875 -23.972656 60.171875 -20.703125 C 60.171875 -17.429688 61.660156 -13.875 64.640625 -10.03125 C 67.628906 -6.1875 72.113281 -4.265625 78.09375 -4.265625 L 81.9375 -4.265625 L 81.9375 0 L -3.84375 0 L -3.84375 -4.265625 L 0 -4.265625 C 7.113281 -4.265625 14.082031 -6.539062 20.90625 -11.09375 C 27.738281 -15.644531 33.285156 -22.332031 37.546875 -31.15625 L 134 -260.75 C 144.53125 -283.800781 149.796875 -298.453125 149.796875 -304.703125 L 153.625 -304.703125 L 268 -31.15625 C 271.988281 -22.332031 277.394531 -15.644531 284.21875 -11.09375 C 291.050781 -6.539062 298.164062 -4.265625 305.5625 -4.265625 Z M 95.59375 -116.5 L 200.578125 -116.5 L 149.359375 -253.5 Z M 95.59375 -116.5 "/></g></g></g></g></g><g clip-path="url(#03a91fe3ea)"><g transform="matrix(1, 0, 0, 1, 545, 1030)"><g clip-path="url(#9dd37bb8f2)"><g fill="#3a73c1" fill-opacity="1"><g transform="translate(0.517966, 196.574337)"><g><path d="M 14.84375 -2.03125 C 18.375 -2.03125 21.394531 -3.285156 23.90625 -5.796875 C 26.414062 -8.304688 27.738281 -11.320312 27.875 -14.84375 L 27.875 -127.765625 C 27.738281 -131.285156 26.414062 -134.265625 23.90625 -136.703125 C 21.394531 -139.148438 18.375 -140.375 14.84375 -140.375 L 12.203125 -140.375 L 12.203125 -142.40625 L 56.765625 -142.40625 L 56.765625 -140.375 L 54.109375 -140.375 C 50.585938 -140.375 47.570312 -139.148438 45.0625 -136.703125 C 42.550781 -134.265625 41.226562 -131.285156 41.09375 -127.765625 L 41.09375 -14.84375 C 41.09375 -11.320312 42.378906 -8.304688 44.953125 -5.796875 C 47.535156 -3.285156 50.585938 -2.03125 54.109375 -2.03125 L 56.765625 -2.03125 L 56.765625 0 L 12.203125 0 L 12.203125 -2.03125 Z M 14.84375 -2.03125 "/></g></g></g><g fill="#3a73c1" fill-opacity="1"><g transform="translate(89.824127, 196.574337)"><g><path d="M 158.28125 -140.375 C 154.882812 -140.375 151.960938 -139.1875 149.515625 -136.8125 C 147.078125 -134.4375 145.789062 -131.554688 145.65625 -128.171875 L 145.65625 -23.1875 C 145.65625 -15.320312 146.128906 -7.863281 147.078125 -0.8125 L 147.5 2.84375 L 145.65625 2.84375 L 34.78125 -115.546875 L 34.78125 -14.234375 C 34.914062 -9.492188 37.019531 -5.96875 41.09375 -3.65625 C 42.988281 -2.570312 45.023438 -2.03125 47.203125 -2.03125 L 51.0625 -2.03125 L 51.0625 0 L 9.15625 0 L 9.15625 -2.03125 L 13.015625 -2.03125 C 16.410156 -2.03125 19.328125 -3.21875 21.765625 -5.59375 C 24.210938 -7.96875 25.4375 -10.914062 25.4375 -14.4375 L 25.4375 -120.03125 C 25.4375 -128.300781 24.957031 -135.691406 24 -142.203125 L 23.59375 -145.453125 L 25.640625 -145.453125 L 136.5 -27.0625 L 136.5 -127.96875 C 136.363281 -131.488281 135.078125 -134.4375 132.640625 -136.8125 C 130.203125 -139.1875 127.285156 -140.375 123.890625 -140.375 L 120.03125 -140.375 L 120.03125 -142.40625 L 161.9375 -142.40625 L 161.9375 -140.375 Z M 158.28125 -140.375 "/></g></g></g><g fill="#3a73c1" fill-opacity="1"><g transform="translate(281.455195, 196.574337)"><g><path d="M 183.09375 -2.03125 L 186.34375 -2.03125 L 186.34375 0 L 142.203125 0 L 142.203125 -1.828125 L 145.25 -1.828125 C 147.5625 -1.828125 149.53125 -2.742188 151.15625 -4.578125 C 152.78125 -6.410156 153.457031 -8.410156 153.1875 -10.578125 L 144.03125 -112.90625 L 101.3125 -17.90625 C 97.507812 -9.632812 95.203125 -2.71875 94.390625 2.84375 L 92.359375 2.84375 L 40.28125 -110.0625 L 31.53125 -10.578125 C 31.257812 -8.410156 31.9375 -6.410156 33.5625 -4.578125 C 35.195312 -2.742188 37.097656 -1.828125 39.265625 -1.828125 L 42.515625 -1.828125 L 42.515625 0 L 3.046875 0 L 3.046875 -2.03125 L 6.3125 -2.03125 C 10.101562 -2.03125 13.390625 -3.179688 16.171875 -5.484375 C 18.953125 -7.796875 20.613281 -10.914062 21.15625 -14.84375 L 36.421875 -145.25 L 38.453125 -145.25 L 95.203125 -22.578125 L 150.75 -145.25 L 152.578125 -145.25 L 168.25 -14.84375 C 168.925781 -9.425781 171.632812 -5.628906 176.375 -3.453125 C 178.414062 -2.503906 180.65625 -2.03125 183.09375 -2.03125 Z M 183.09375 -2.03125 "/></g></g></g><g fill="#3a73c1" fill-opacity="1"><g transform="translate(491.394887, 196.574337)"><g><path d="M 34.46875 -124.796875 C 47.96875 -138.429688 65.566406 -145.25 87.265625 -145.25 C 108.972656 -145.25 126.609375 -138.429688 140.171875 -124.796875 C 153.734375 -111.171875 160.515625 -93.304688 160.515625 -71.203125 C 160.515625 -49.097656 153.734375 -31.226562 140.171875 -17.59375 C 126.609375 -3.96875 108.972656 2.84375 87.265625 2.84375 C 65.566406 2.84375 47.96875 -3.96875 34.46875 -17.59375 C 20.976562 -31.226562 14.234375 -49.097656 14.234375 -71.203125 C 14.234375 -93.304688 20.976562 -111.171875 34.46875 -124.796875 Z M 45.671875 -21.96875 C 56.179688 -9.488281 70.082031 -3.25 87.375 -3.25 C 104.664062 -3.25 118.566406 -9.488281 129.078125 -21.96875 C 139.585938 -34.445312 144.84375 -50.859375 144.84375 -71.203125 C 144.84375 -84.628906 142.46875 -96.492188 137.71875 -106.796875 C 132.976562 -117.109375 126.234375 -125.078125 117.484375 -130.703125 C 108.734375 -136.335938 98.664062 -139.15625 87.28125 -139.15625 C 70.050781 -139.15625 56.179688 -132.914062 45.671875 -120.4375 C 35.160156 -107.957031 29.90625 -91.546875 29.90625 -71.203125 C 29.90625 -50.859375 35.160156 -34.445312 45.671875 -21.96875 Z M 45.671875 -21.96875 "/></g></g></g><g fill="#3a73c1" fill-opacity="1"><g transform="translate(682.4157, 196.574337)"><g><path d="M 61.84375 0 L 12.203125 0 L 12.40625 -2.03125 L 14.84375 -2.03125 C 18.375 -2.03125 21.394531 -3.25 23.90625 -5.6875 C 26.414062 -8.132812 27.738281 -11.117188 27.875 -14.640625 L 27.875 -127.765625 C 27.875 -131.285156 26.582031 -134.265625 24 -136.703125 C 21.425781 -139.148438 18.375 -140.375 14.84375 -140.375 L 12.40625 -140.375 L 12.203125 -142.40625 L 52.6875 -142.40625 C 66.65625 -142.40625 77.503906 -139.316406 85.234375 -133.140625 C 92.972656 -126.972656 96.84375 -118.738281 96.84375 -108.4375 C 96.84375 -100.289062 94.671875 -93.539062 90.328125 -88.1875 C 85.984375 -82.832031 80.691406 -79.273438 74.453125 -77.515625 C 85.171875 -75.878906 93.648438 -71.46875 99.890625 -64.28125 C 106.128906 -57.09375 109.25 -48.039062 109.25 -37.125 C 109.25 -26.207031 105.078125 -17.289062 96.734375 -10.375 C 88.390625 -3.457031 76.757812 0 61.84375 0 Z M 41.09375 -7.328125 L 61.03125 -7.328125 C 61.164062 -7.328125 61.300781 -7.328125 61.4375 -7.328125 C 71.75 -7.328125 79.75 -10.140625 85.4375 -15.765625 C 91.132812 -21.390625 93.984375 -29.359375 93.984375 -39.671875 C 93.984375 -45.503906 93 -50.625 91.03125 -55.03125 C 89.070312 -59.4375 86.597656 -62.925781 83.609375 -65.5 C 75.742188 -72.007812 63.945312 -75.265625 48.21875 -75.265625 C 48.21875 -75.265625 48.148438 -75.265625 48.015625 -75.265625 L 48.015625 -77.109375 C 48.148438 -77.109375 48.789062 -77.109375 49.9375 -77.109375 C 51.09375 -77.109375 52.753906 -77.242188 54.921875 -77.515625 C 57.097656 -77.785156 59.539062 -78.257812 62.25 -78.9375 C 64.96875 -79.613281 67.410156 -80.695312 69.578125 -82.1875 C 71.742188 -83.675781 73.773438 -85.441406 75.671875 -87.484375 C 79.609375 -91.953125 81.578125 -98.628906 81.578125 -107.515625 C 81.578125 -116.398438 79.035156 -123.347656 73.953125 -128.359375 C 68.867188 -133.378906 61.507812 -135.890625 51.875 -135.890625 L 41.09375 -135.890625 Z M 41.09375 -7.328125 "/></g></g></g><g fill="#3a73c1" fill-opacity="1"><g transform="translate(822.172259, 196.574337)"><g><path d="M 14.84375 -2.03125 C 18.375 -2.03125 21.394531 -3.285156 23.90625 -5.796875 C 26.414062 -8.304688 27.738281 -11.320312 27.875 -14.84375 L 27.875 -127.765625 C 27.738281 -131.285156 26.414062 -134.265625 23.90625 -136.703125 C 21.394531 -139.148438 18.375 -140.375 14.84375 -140.375 L 12.203125 -140.375 L 12.203125 -142.40625 L 56.765625 -142.40625 L 56.765625 -140.375 L 54.109375 -140.375 C 50.585938 -140.375 47.570312 -139.148438 45.0625 -136.703125 C 42.550781 -134.265625 41.226562 -131.285156 41.09375 -127.765625 L 41.09375 -14.84375 C 41.09375 -11.320312 42.378906 -8.304688 44.953125 -5.796875 C 47.535156 -3.285156 50.585938 -2.03125 54.109375 -2.03125 L 56.765625 -2.03125 L 56.765625 0 L 12.203125 0 L 12.203125 -2.03125 Z M 14.84375 -2.03125 "/></g></g></g><g fill="#3a73c1" fill-opacity="1"><g transform="translate(911.478473, 196.574337)"><g><path d="M 14.84375 -2.03125 C 18.375 -2.03125 21.394531 -3.285156 23.90625 -5.796875 C 26.414062 -8.304688 27.738281 -11.320312 27.875 -14.84375 L 27.875 -127.5625 C 27.738281 -131.082031 26.414062 -134.097656 23.90625 -136.609375 C 21.394531 -139.117188 18.375 -140.375 14.84375 -140.375 L 12.203125 -140.375 L 12.203125 -142.40625 L 56.765625 -142.40625 L 56.765625 -140.375 L 54.109375 -140.375 C 49.234375 -140.375 45.503906 -138.269531 42.921875 -134.0625 C 41.703125 -132.03125 41.09375 -129.863281 41.09375 -127.5625 L 41.09375 -6.3125 L 70.1875 -6.3125 C 80.21875 -6.3125 87.878906 -8.546875 93.171875 -13.015625 C 98.460938 -17.492188 102.867188 -24.140625 106.390625 -32.953125 L 108.4375 -32.953125 L 96.640625 0 L 12.203125 0 L 12.203125 -2.03125 Z M 14.84375 -2.03125 "/></g></g></g><g fill="#3a73c1" fill-opacity="1"><g transform="translate(1046.352779, 196.574337)"><g><path d="M 14.84375 -2.03125 C 18.375 -2.03125 21.394531 -3.285156 23.90625 -5.796875 C 26.414062 -8.304688 27.738281 -11.320312 27.875 -14.84375 L 27.875 -127.765625 C 27.738281 -131.285156 26.414062 -134.265625 23.90625 -136.703125 C 21.394531 -139.148438 18.375 -140.375 14.84375 -140.375 L 12.203125 -140.375 L 12.203125 -142.40625 L 56.765625 -142.40625 L 56.765625 -140.375 L 54.109375 -140.375 C 50.585938 -140.375 47.570312 -139.148438 45.0625 -136.703125 C 42.550781 -134.265625 41.226562 -131.285156 41.09375 -127.765625 L 41.09375 -14.84375 C 41.09375 -11.320312 42.378906 -8.304688 44.953125 -5.796875 C 47.535156 -3.285156 50.585938 -2.03125 54.109375 -2.03125 L 56.765625 -2.03125 L 56.765625 0 L 12.203125 0 L 12.203125 -2.03125 Z M 14.84375 -2.03125 "/></g></g></g><g fill="#3a73c1" fill-opacity="1"><g transform="translate(1135.658922, 196.574337)"><g><path d="M 145.65625 -2.03125 L 147.28125 -2.03125 L 147.28125 0 L 101.515625 0 L 101.515625 -2.03125 L 103.34375 -2.03125 C 106.195312 -2.03125 108.332031 -2.945312 109.75 -4.78125 C 111.175781 -6.613281 111.890625 -8.34375 111.890625 -9.96875 C 111.890625 -11.59375 111.617188 -13.21875 111.078125 -14.84375 L 98.0625 -49.4375 L 43.125 -49.4375 L 29.5 -14.640625 C 28.957031 -13.015625 28.6875 -11.421875 28.6875 -9.859375 C 28.6875 -8.304688 29.394531 -6.613281 30.8125 -4.78125 C 32.238281 -2.945312 34.378906 -2.03125 37.234375 -2.03125 L 39.0625 -2.03125 L 39.0625 0 L -1.828125 0 L -1.828125 -2.03125 L 0 -2.03125 C 3.382812 -2.03125 6.703125 -3.113281 9.953125 -5.28125 C 13.210938 -7.457031 15.863281 -10.644531 17.90625 -14.84375 L 63.875 -124.296875 C 68.894531 -135.285156 71.40625 -142.269531 71.40625 -145.25 L 73.234375 -145.25 L 127.765625 -14.84375 C 129.660156 -10.644531 132.234375 -7.457031 135.484375 -5.28125 C 138.742188 -3.113281 142.132812 -2.03125 145.65625 -2.03125 Z M 45.5625 -55.53125 L 95.609375 -55.53125 L 71.203125 -120.84375 Z M 45.5625 -55.53125 "/></g></g></g><g fill="#3a73c1" fill-opacity="1"><g transform="translate(1301.047572, 196.574337)"><g><path d="M 54.109375 -136.09375 L 41.09375 -136.09375 L 41.09375 -14.84375 C 41.09375 -11.320312 42.347656 -8.304688 44.859375 -5.796875 C 47.367188 -3.285156 50.453125 -2.03125 54.109375 -2.03125 L 56.5625 -2.03125 L 56.765625 0 L 12.203125 0 L 12.203125 -2.03125 L 14.84375 -2.03125 C 18.375 -2.03125 21.394531 -3.25 23.90625 -5.6875 C 26.414062 -8.132812 27.738281 -11.117188 27.875 -14.640625 L 27.875 -127.5625 C 27.738281 -131.082031 26.414062 -134.097656 23.90625 -136.609375 C 21.394531 -139.117188 18.375 -140.375 14.84375 -140.375 L 12.203125 -140.375 L 12.203125 -142.40625 L 67.140625 -142.40625 C 79.472656 -142.40625 89.164062 -138.976562 96.21875 -132.125 C 103.28125 -125.28125 106.8125 -116.398438 106.8125 -105.484375 C 106.8125 -94.566406 103.453125 -85.140625 96.734375 -77.203125 C 90.023438 -69.265625 81.851562 -65.296875 72.21875 -65.296875 C 74.25 -64.347656 76.65625 -62.484375 79.4375 -59.703125 C 82.21875 -56.921875 84.695312 -54.039062 86.875 -51.0625 C 98.53125 -34.382812 106.117188 -24.109375 109.640625 -20.234375 C 113.171875 -16.367188 115.679688 -13.722656 117.171875 -12.296875 C 118.671875 -10.878906 120.300781 -9.492188 122.0625 -8.140625 C 123.820312 -6.785156 125.585938 -5.695312 127.359375 -4.875 C 131.285156 -2.976562 135.488281 -2.03125 139.96875 -2.03125 L 139.96875 0 L 128.78125 0 C 122.945312 0 117.519531 -1.050781 112.5 -3.15625 C 107.476562 -5.257812 103.710938 -7.425781 101.203125 -9.65625 C 98.703125 -11.894531 96.535156 -14.066406 94.703125 -16.171875 C 92.867188 -18.273438 87.816406 -25.289062 79.546875 -37.21875 C 71.273438 -49.15625 66.457031 -55.972656 65.09375 -57.671875 C 63.738281 -59.367188 62.316406 -61.03125 60.828125 -62.65625 C 56.484375 -67.269531 52.144531 -69.578125 47.8125 -69.578125 L 47.8125 -71.609375 C 48.894531 -71.472656 50.316406 -71.40625 52.078125 -71.40625 C 53.835938 -71.40625 56.007812 -71.472656 58.59375 -71.609375 C 75.40625 -72.015625 85.984375 -79.066406 90.328125 -92.765625 C 91.140625 -95.484375 91.546875 -98.023438 91.546875 -100.390625 C 91.546875 -102.765625 91.546875 -104.289062 91.546875 -104.96875 C 91.273438 -114.0625 88.898438 -121.382812 84.421875 -126.9375 C 79.953125 -132.5 73.921875 -135.484375 66.328125 -135.890625 C 63.066406 -136.023438 58.992188 -136.09375 54.109375 -136.09375 Z M 54.109375 -136.09375 "/></g></g></g><g fill="#3a73c1" fill-opacity="1"><g transform="translate(1459.316304, 196.574337)"><g><path d="M 14.84375 -2.03125 C 18.375 -2.03125 21.394531 -3.285156 23.90625 -5.796875 C 26.414062 -8.304688 27.738281 -11.320312 27.875 -14.84375 L 27.875 -127.765625 C 27.738281 -131.285156 26.414062 -134.265625 23.90625 -136.703125 C 21.394531 -139.148438 18.375 -140.375 14.84375 -140.375 L 12.203125 -140.375 L 12.203125 -142.40625 L 56.765625 -142.40625 L 56.765625 -140.375 L 54.109375 -140.375 C 50.585938 -140.375 47.570312 -139.148438 45.0625 -136.703125 C 42.550781 -134.265625 41.226562 -131.285156 41.09375 -127.765625 L 41.09375 -14.84375 C 41.09375 -11.320312 42.378906 -8.304688 44.953125 -5.796875 C 47.535156 -3.285156 50.585938 -2.03125 54.109375 -2.03125 L 56.765625 -2.03125 L 56.765625 0 L 12.203125 0 L 12.203125 -2.03125 Z M 14.84375 -2.03125 "/></g></g></g><g fill="#3a73c1" fill-opacity="1"><g transform="translate(1548.622446, 196.574337)"><g><path d="M 145.65625 -2.03125 L 147.28125 -2.03125 L 147.28125 0 L 101.515625 0 L 101.515625 -2.03125 L 103.34375 -2.03125 C 106.195312 -2.03125 108.332031 -2.945312 109.75 -4.78125 C 111.175781 -6.613281 111.890625 -8.34375 111.890625 -9.96875 C 111.890625 -11.59375 111.617188 -13.21875 111.078125 -14.84375 L 98.0625 -49.4375 L 43.125 -49.4375 L 29.5 -14.640625 C 28.957031 -13.015625 28.6875 -11.421875 28.6875 -9.859375 C 28.6875 -8.304688 29.394531 -6.613281 30.8125 -4.78125 C 32.238281 -2.945312 34.378906 -2.03125 37.234375 -2.03125 L 39.0625 -2.03125 L 39.0625 0 L -1.828125 0 L -1.828125 -2.03125 L 0 -2.03125 C 3.382812 -2.03125 6.703125 -3.113281 9.953125 -5.28125 C 13.210938 -7.457031 15.863281 -10.644531 17.90625 -14.84375 L 63.875 -124.296875 C 68.894531 -135.285156 71.40625 -142.269531 71.40625 -145.25 L 73.234375 -145.25 L 127.765625 -14.84375 C 129.660156 -10.644531 132.234375 -7.457031 135.484375 -5.28125 C 138.742188 -3.113281 142.132812 -2.03125 145.65625 -2.03125 Z M 45.5625 -55.53125 L 95.609375 -55.53125 L 71.203125 -120.84375 Z M 45.5625 -55.53125 "/></g></g></g></g></g></g></g></g></g></g></g></svg>